<svg width="879" height="867" viewBox="0 0 879 867" fill="none" xmlns="http://www.w3.org/2000/svg">
<circle cx="471.5" cy="459.5" r="405" stroke="black" stroke-width="5"/>
<path d="M729.5 461C729.5 572.708 700.443 673.724 653.597 746.735C606.734 819.774 542.294 864.5 471.5 864.5C400.706 864.5 336.266 819.774 289.403 746.735C242.557 673.724 213.5 572.708 213.5 461C213.5 349.292 242.557 248.276 289.403 175.265C336.266 102.226 400.706 57.5 471.5 57.5C542.294 57.5 606.734 102.226 653.597 175.265C700.443 248.276 729.5 349.292 729.5 461Z" stroke="black" stroke-width="5"/>
<path d="M603.5 461C603.5 572.92 588.412 674.142 564.087 747.297C551.92 783.887 537.488 813.318 521.583 833.549C505.655 853.81 488.543 864.5 471 864.5C453.457 864.5 436.345 853.81 420.417 833.549C404.512 813.318 390.08 783.887 377.913 747.297C353.588 674.142 338.5 572.92 338.5 461C338.5 349.08 353.588 247.858 377.913 174.703C390.08 138.113 404.512 108.682 420.417 88.4506C436.345 68.1901 453.457 57.5 471 57.5C488.543 57.5 505.655 68.1901 521.583 88.4506C537.488 108.682 551.92 138.113 564.087 174.703C588.412 247.858 603.5 349.08 603.5 461Z" stroke="black" stroke-width="5"/>
<path d="M471.5 719C359.792 719 258.776 689.943 185.765 643.097C112.726 596.234 67.9999 531.794 67.9999 461C67.9999 390.206 112.726 325.766 185.765 278.903C258.776 232.057 359.792 203 471.5 203C583.208 203 684.224 232.057 757.235 278.903C830.274 325.766 875 390.206 875 461C875 531.794 830.274 596.234 757.235 643.097C684.224 689.943 583.208 719 471.5 719Z" stroke="black" stroke-width="5"/>
<path d="M471.5 593C359.58 593 258.358 577.912 185.203 553.587C148.613 541.42 119.182 526.988 98.9505 511.083C78.69 495.155 67.9999 478.043 67.9999 460.5C67.9999 442.957 78.69 425.845 98.9505 409.917C119.182 394.012 148.613 379.58 185.203 367.413C258.358 343.088 359.58 328 471.5 328C583.42 328 684.642 343.088 757.796 367.413C794.387 379.58 823.818 394.012 844.049 409.917C864.31 425.845 875 442.957 875 460.5C875 478.043 864.31 495.155 844.049 511.083C823.818 526.988 794.387 541.42 757.796 553.587C684.642 577.912 583.42 593 471.5 593Z" stroke="black" stroke-width="5"/>
<circle cx="171.5" cy="171.5" r="171.5" fill="#4A90AE"/>
<circle cx="547" cy="536" r="100" fill="#9FDFDB"/>
</svg>
