<svg width="24" height="24" viewBox="0 0 24 24" fill="none" xmlns="http://www.w3.org/2000/svg">
<path d="M6.80371 4.79255L5 6.5L3.93333 8.33322C2.3133 8.33322 1 7.01992 1 5.39988C1 3.77985 2.3133 2.46655 3.93333 2.46655C5.34514 2.46655 6.524 3.46395 6.80371 4.79255Z" fill="#4A90AE"/>
<path d="M23.0003 11.2667C23.0003 12.0767 22.3436 12.7334 21.5336 12.7334C21.2862 12.7334 21.0531 12.6721 20.8486 12.5639L20.8486 11.2667L20.6802 10.0738C20.9206 9.90147 21.2152 9.80005 21.5336 9.80005C22.3436 9.80005 23.0003 10.4567 23.0003 11.2667Z" fill="#4A90AE"/>
<circle cx="15.6666" cy="2.46667" r="1.46667" fill="#9FDFDB"/>
<path d="M21.5332 20.0666C21.5332 21.6867 20.2199 23 18.5998 23C16.9798 23 15.6665 21.6867 15.6665 20.0666L17.5 19L19.1769 17.1901C20.5206 17.4581 21.5332 18.6441 21.5332 20.0666Z" fill="#9FDFDB"/>
<circle cx="12" cy="12" r="8.875" stroke="#333333" stroke-width="0.25"/>
<path d="M14.3293 12C14.3293 14.4775 14.0553 16.7159 13.6147 18.3311C13.3942 19.1396 13.1339 19.7848 12.8501 20.225C12.5626 20.6708 12.2724 20.875 11.9997 20.875C11.727 20.875 11.4368 20.6708 11.1493 20.225C10.8655 19.7848 10.6052 19.1396 10.3847 18.3311C9.94417 16.7159 9.67017 14.4775 9.67017 12C9.67017 9.52255 9.94417 7.28413 10.3847 5.66893C10.6052 4.86043 10.8655 4.21519 11.1493 3.775C11.4368 3.32922 11.727 3.125 11.9997 3.125C12.2724 3.125 12.5626 3.32922 12.8501 3.775C13.1339 4.21519 13.3942 4.86043 13.6147 5.66893C14.0553 7.28413 14.3293 9.52255 14.3293 12Z" stroke="#333333" stroke-width="0.25"/>
<path d="M17.6023 12C17.6023 14.4652 16.9661 16.6911 15.9443 18.2969C14.9215 19.9041 13.524 20.875 12 20.875C10.476 20.875 9.07842 19.9041 8.05564 18.2969C7.03381 16.6911 6.39771 14.4652 6.39771 12C6.39771 9.53482 7.03381 7.30888 8.05564 5.70315C9.07842 4.09593 10.476 3.125 12 3.125C13.524 3.125 14.9215 4.09593 15.9443 5.70315C16.9661 7.30888 17.6023 9.53482 17.6023 12Z" stroke="#333333" stroke-width="0.25"/>
<path d="M12 14.3296C9.52255 14.3296 7.28413 14.0556 5.66893 13.6151C4.86043 13.3946 4.21519 13.1343 3.775 12.8504C3.32922 12.563 3.125 12.2728 3.125 12.0001C3.125 11.7274 3.32922 11.4372 3.775 11.1497C4.21519 10.8659 4.86043 10.6055 5.66893 10.385C7.28413 9.94454 9.52255 9.67053 12 9.67053C14.4775 9.67053 16.7159 9.94454 18.3311 10.385C19.1396 10.6055 19.7848 10.8659 20.225 11.1497C20.6708 11.4372 20.875 11.7274 20.875 12.0001C20.875 12.2728 20.6708 12.563 20.225 12.8504C19.7848 13.1343 19.1396 13.3946 18.3311 13.6151C16.7159 14.0556 14.4775 14.3296 12 14.3296Z" stroke="#333333" stroke-width="0.25"/>
<path d="M12 17.6021C9.53482 17.6021 7.30888 16.966 5.70315 15.9442C4.09593 14.9214 3.125 13.5238 3.125 11.9999C3.125 10.4759 4.09593 9.07829 5.70315 8.05552C7.30888 7.03369 9.53482 6.39758 12 6.39758C14.4652 6.39758 16.6911 7.03369 18.2969 8.05552C19.9041 9.0783 20.875 10.4759 20.875 11.9999C20.875 13.5238 19.9041 14.9214 18.2969 15.9442C16.6911 16.966 14.4652 17.6021 12 17.6021Z" stroke="#333333" stroke-width="0.25"/>
<circle cx="12" cy="14" r="3" fill="#4A90AE"/>
<circle cx="4.5" cy="18.5" r="1.5" fill="#9FDFDB"/>
</svg>
