<svg width="24" height="24" viewBox="0 0 24 24" fill="none" xmlns="http://www.w3.org/2000/svg">
<path d="M6.80371 4.79255L5 6.5L3.93333 8.33322C2.3133 8.33322 1 7.01992 1 5.39988C1 3.77985 2.3133 2.46655 3.93333 2.46655C5.34514 2.46655 6.524 3.46395 6.80371 4.79255Z" fill="#4A90AE"/>
<path d="M23.0003 11.2667C23.0003 12.0767 22.3436 12.7334 21.5336 12.7334C21.2862 12.7334 21.0531 12.6721 20.8486 12.5639L20.8486 11.2667L20.6802 10.0738C20.9206 9.90147 21.2152 9.80005 21.5336 9.80005C22.3436 9.80005 23.0003 10.4567 23.0003 11.2667Z" fill="#4A90AE"/>
<circle cx="15.6666" cy="2.46667" r="1.46667" fill="#9FDFDB"/>
<path d="M21.5332 20.0665C21.5332 21.6865 20.2199 22.9998 18.5998 22.9998C16.9798 22.9998 15.6665 21.6865 15.6665 20.0665L17.5 18.9999L19.1769 17.1899C20.5206 17.458 21.5332 18.644 21.5332 20.0665Z" fill="#9FDFDB"/>
<circle cx="12" cy="12" r="8.875" stroke="white" stroke-width="0.25"/>
<path d="M14.3293 12C14.3293 14.4775 14.0553 16.7159 13.6147 18.3311C13.3942 19.1396 13.1339 19.7848 12.8501 20.225C12.5626 20.6708 12.2724 20.875 11.9997 20.875C11.727 20.875 11.4368 20.6708 11.1493 20.225C10.8655 19.7848 10.6052 19.1396 10.3847 18.3311C9.94417 16.7159 9.67017 14.4775 9.67017 12C9.67017 9.52255 9.94417 7.28413 10.3847 5.66893C10.6052 4.86043 10.8655 4.21519 11.1493 3.775C11.4368 3.32922 11.727 3.125 11.9997 3.125C12.2724 3.125 12.5626 3.32922 12.8501 3.775C13.1339 4.21519 13.3942 4.86043 13.6147 5.66893C14.0553 7.28413 14.3293 9.52255 14.3293 12Z" stroke="white" stroke-width="0.25"/>
<path d="M17.6023 12C17.6023 14.4652 16.9661 16.6911 15.9443 18.2969C14.9215 19.9041 13.524 20.875 12 20.875C10.476 20.875 9.07842 19.9041 8.05564 18.2969C7.03381 16.6911 6.39771 14.4652 6.39771 12C6.39771 9.53482 7.03381 7.30888 8.05564 5.70315C9.07842 4.09593 10.476 3.125 12 3.125C13.524 3.125 14.9215 4.09593 15.9443 5.70315C16.9661 7.30888 17.6023 9.53482 17.6023 12Z" stroke="white" stroke-width="0.25"/>
<path d="M12 14.3297C9.52255 14.3297 7.28413 14.0557 5.66893 13.6152C4.86043 13.3947 4.21519 13.1344 3.775 12.8506C3.32922 12.5631 3.125 12.2729 3.125 12.0002C3.125 11.7275 3.32922 11.4373 3.775 11.1498C4.21519 10.866 4.86043 10.6057 5.66893 10.3852C7.28413 9.94466 9.52255 9.67065 12 9.67065C14.4775 9.67065 16.7159 9.94466 18.3311 10.3852C19.1396 10.6057 19.7848 10.866 20.225 11.1498C20.6708 11.4373 20.875 11.7275 20.875 12.0002C20.875 12.2729 20.6708 12.5631 20.225 12.8506C19.7848 13.1344 19.1396 13.3947 18.3311 13.6152C16.7159 14.0557 14.4775 14.3297 12 14.3297Z" stroke="white" stroke-width="0.25"/>
<path d="M12 17.6023C9.53482 17.6023 7.30888 16.9661 5.70315 15.9443C4.09593 14.9215 3.125 13.524 3.125 12C3.125 10.476 4.09593 9.07842 5.70315 8.05564C7.30888 7.03381 9.53482 6.3977 12 6.3977C14.4652 6.3977 16.6911 7.03381 18.2969 8.05564C19.9041 9.07842 20.875 10.476 20.875 12C20.875 13.524 19.9041 14.9215 18.2969 15.9443C16.6911 16.9661 14.4652 17.6023 12 17.6023Z" stroke="white" stroke-width="0.25"/>
<circle cx="12" cy="14" r="3" fill="#4A90AE"/>
<circle cx="4.5" cy="18.5" r="1.5" fill="#9FDFDB"/>
</svg>
