<svg width="425" height="770" viewBox="0 0 425 770" fill="none" xmlns="http://www.w3.org/2000/svg">
<path d="M355 421C393.66 421 425 389.66 425 351C425 312.34 393.66 281 355 281C316.34 281 285 312.34 285 351C285 389.66 316.34 421 355 421Z" fill="#6588FF"/>
<path d="M236 62C253.121 62 267 48.1208 267 31C267 13.8792 253.121 0 236 0C218.879 0 205 13.8792 205 31C205 48.1208 218.879 62 236 62Z" fill="#6588FF"/>
<path d="M41.5 253C64.4198 253 83 234.42 83 211.5C83 188.58 64.4198 170 41.5 170C18.5802 170 0 188.58 0 211.5C0 234.42 18.5802 253 41.5 253Z" fill="#6588FF"/>
<path d="M232.5 770C315.067 770 382 703.067 382 620.5C382 537.933 315.067 471 232.5 471C149.933 471 83 537.933 83 620.5C83 703.067 149.933 770 232.5 770Z" fill="#6588FF"/>
<path d="M243.5 618.5C368.5 536.5 442 402.5 356 361C270 319.5 -44.9999 307 41.0001 217.5C109.8 145.9 204.667 60 243.5 26" stroke="#6588FF" stroke-width="17"/>
</svg>
